<svg xmlns="http://www.w3.org/2000/svg" xmlns:xlink="http://www.w3.org/1999/xlink" width="334" height="241.671" viewBox="0 0 334 241.671">
  <defs>
    <linearGradient id="linear-gradient" x1="0.5" y1="1" x2="0.5" gradientUnits="objectBoundingBox">
      <stop offset="0" stop-color="gray" stop-opacity="0.251"/>
      <stop offset="0.54" stop-color="gray" stop-opacity="0.122"/>
      <stop offset="1" stop-color="gray" stop-opacity="0.102"/>
    </linearGradient>
    <linearGradient id="linear-gradient-2" x1="0.799" y1="1" x2="0.799" y2="0" xlink:href="#linear-gradient"/>
  </defs>
  <g id="undraw_Bibliophile_hwqc" transform="translate(0 0)">
    <path id="Path_178" data-name="Path 178" d="M423.632,226.27c-10.56,17.271-8.693,40.73-4.168,59.228,1.514,6.194,3.264,12.725,1.917,19.665-1.648,8.486-7.55,15.175-13.512,19-10.87,6.984-23.245,6.841-32.208-.368-7.758-6.231-12.837-17.132-20.749-23.025-13.258-9.864-31.517-3.772-47.4,5.574-11.239,6.609-23.608,14.973-33.942,10.313-7.272-3.28-11.768-12.6-13.852-22.759-1-4.9-1.6-10.26-3.93-13.992A15.364,15.364,0,0,0,250.5,275c-18.12-11.047-42.737-1.641-60.2-14.162-11.8-8.458-18.451-26-20.579-44.772s-.245-38.891,2.1-58.7c1.678-14.072,3.933-29.142,11.254-40.616,7.742-12.137,19.894-17.593,30.43-16.506s19.659,7.848,27.513,16.1c9.817,10.319,18.649,23.515,31.4,26.8,8.671,2.239,18.185-.437,27.423-1.967,15.444-2.558,30.659-1.908,45.76-1.037,14.459.833,29.009,1.892,42.465,7.008,9.523,3.62,16.81,11.211,25.689,16.129,5.788,3.205,12.332,3.586,17.72,7.872a27.114,27.114,0,0,1,9.638,27.442C438.525,210.383,429.235,217.107,423.632,226.27Z" transform="translate(-135.333 -87.635)" fill="#5abd8c" opacity="0.1"/>
    <path id="Path_179" data-name="Path 179" d="M317.109,181.531s-45.568-10.189,12.412-69.8c0,0,24.992,23.688,15.825,53.133a24.207,24.207,0,0,1-27.562,16.807Z" transform="translate(-225.968 -95.654)" fill="#5abd8c"/>
    <path id="Path_180" data-name="Path 180" d="M317.429,181.531c-1-.223-44.6-11.2,12.412-69.8,0,0,24.992,23.688,15.825,53.133A24.207,24.207,0,0,1,318.1,181.67Z" transform="translate(-226.288 -95.654)" fill="#fff" opacity="0.4"/>
    <path id="Path_181" data-name="Path 181" d="M357,181.878s24.069-36.258,11.815-70.138" transform="translate(-265.255 -95.661)" fill="none" stroke="#535461" stroke-width="1"/>
    <path id="Path_182" data-name="Path 182" d="M954.694,228.758s-7.854-31.622,4.048-54.137a49.354,49.354,0,0,0,5.314-30.771,83.007,83.007,0,0,0-3.76-14.71" transform="translate(-676.094 -107.673)" fill="none" stroke="#535461" stroke-width="2"/>
    <path id="Path_183" data-name="Path 183" d="M971.5,67.054c-.164,3.828-7.569,14.627-7.569,14.627s-6.454-11.393-6.29-15.221a6.936,6.936,0,1,1,13.86.595Z" transform="translate(-679.883 -59.82)" fill="#5abd8c"/>
    <path id="Path_184" data-name="Path 184" d="M1004.575,128.8c-2.217,3.125-14.3,8.166-14.3,8.166s.774-13.072,2.992-16.2a6.936,6.936,0,1,1,11.311,8.031Z" transform="translate(-702.408 -99.874)" fill="#5abd8c"/>
    <path id="Path_185" data-name="Path 185" d="M993.119,240.555c-3.49,1.576-16.469-.17-16.469-.17s7.268-10.892,10.759-12.471a6.936,6.936,0,1,1,5.711,12.643Z" transform="translate(-693.006 -175.431)" fill="#5abd8c"/>
    <path id="Path_186" data-name="Path 186" d="M968.652,329.154c-3.174,2.143-16.262,2.614-16.262,2.614s5.323-11.963,8.5-14.109a6.937,6.937,0,1,1,7.765,11.5Z" transform="translate(-676.259 -236.987)" fill="#5abd8c"/>
    <path id="Path_187" data-name="Path 187" d="M938.965,153.92c2.629,2.787,15.3,6.095,15.3,6.095s-2.589-12.837-5.218-15.621a6.936,6.936,0,1,0-10.084,9.527Z" transform="translate(-665.683 -116.702)" fill="#5abd8c"/>
    <path id="Path_188" data-name="Path 188" d="M907.733,253.673c3.345,1.858,16.414,1.239,16.414,1.239s-6.3-11.477-9.644-13.344a6.937,6.937,0,0,0-6.77,12.106Z" transform="translate(-643.079 -184.727)" fill="#5abd8c"/>
    <path id="Path_189" data-name="Path 189" d="M896.173,358.292c2.979,2.406,15.977,4,15.977,4S907.87,349.9,904.89,347.5a6.936,6.936,0,1,0-8.719,10.791Z" transform="translate(-635.671 -257.346)" fill="#5abd8c"/>
    <path id="Path_190" data-name="Path 190" d="M971.5,67.054c-.164,3.828-7.569,14.627-7.569,14.627s-6.454-11.393-6.29-15.221a6.936,6.936,0,1,1,13.86.595Z" transform="translate(-679.883 -59.82)" fill="#fc6681"/>
    <path id="Path_191" data-name="Path 191" d="M1004.575,128.8c-2.217,3.125-14.3,8.166-14.3,8.166s.774-13.072,2.992-16.2a6.936,6.936,0,1,1,11.311,8.031Z" transform="translate(-702.408 -99.874)" fill="#fc6681"/>
    <path id="Path_192" data-name="Path 192" d="M993.119,240.555c-3.49,1.576-16.469-.17-16.469-.17s7.268-10.892,10.759-12.471a6.936,6.936,0,1,1,5.711,12.643Z" transform="translate(-693.006 -175.431)" fill="#fc6681"/>
    <path id="Path_193" data-name="Path 193" d="M968.652,329.154c-3.174,2.143-16.262,2.614-16.262,2.614s5.323-11.963,8.5-14.109a6.937,6.937,0,1,1,7.765,11.5Z" transform="translate(-676.259 -236.987)" fill="#fc6681"/>
    <path id="Path_194" data-name="Path 194" d="M938.965,153.92c2.629,2.787,15.3,6.095,15.3,6.095s-2.589-12.837-5.218-15.621a6.936,6.936,0,1,0-10.084,9.527Z" transform="translate(-665.683 -116.702)" fill="#fc6681"/>
    <path id="Path_195" data-name="Path 195" d="M907.733,253.673c3.345,1.858,16.414,1.239,16.414,1.239s-6.3-11.477-9.644-13.344a6.937,6.937,0,0,0-6.77,12.106Z" transform="translate(-643.079 -184.727)" fill="#fc6681"/>
    <path id="Path_196" data-name="Path 196" d="M896.173,358.292c2.979,2.406,15.977,4,15.977,4S907.87,349.9,904.89,347.5a6.936,6.936,0,1,0-8.719,10.791Z" transform="translate(-635.671 -257.346)" fill="#fc6681"/>
    <path id="Path_197" data-name="Path 197" d="M867.52,234.545s32.939-27.6,40.26-41.523a198.01,198.01,0,0,1,16.652-25.912" transform="translate(-617.672 -133.884)" fill="none" stroke="#535461" stroke-width="2"/>
    <path id="Path_198" data-name="Path 198" d="M1005.586,260.4,991.34,257.19S994.7,272.222,1005.586,260.4Z" transform="translate(-703.146 -196.067)" fill="#5abd8c"/>
    <path id="Path_199" data-name="Path 199" d="M962.2,218l8.2,12.282S954.381,231.447,962.2,218Z" transform="translate(-681.548 -169.014)" fill="#5abd8c"/>
    <path id="Path_200" data-name="Path 200" d="M1026.405,225.2l-13.025-2.286S1021.565,235.356,1026.405,225.2Z" transform="translate(-718.361 -172.403)" fill="#5abd8c"/>
    <path id="Path_201" data-name="Path 201" d="M990.458,194.86l6.429,8.4S985.506,204.337,990.458,194.86Z" transform="translate(-701.676 -153.04)" fill="#5abd8c"/>
    <path id="Path_202" data-name="Path 202" d="M1035.14,189.45s11.1.53,12.388,1.589-1.654,7.272-5.884,6.259S1035.14,189.45,1035.14,189.45Z" transform="translate(-733.382 -149.305)" fill="#5abd8c"/>
    <path id="Path_203" data-name="Path 203" d="M1011.613,157.44s4.531,8.256,4.36,9.826-6.9,3.335-8.266-2.617S1011.613,157.44,1011.613,157.44Z" transform="translate(-714.29 -127.208)" fill="#5abd8c"/>
    <circle id="Ellipse_56" data-name="Ellipse 56" cx="3.097" cy="3.097" r="3.097" transform="translate(305.341 36.667) rotate(-72.43)" fill="#ffd037"/>
    <circle id="Ellipse_57" data-name="Ellipse 57" cx="3.097" cy="3.097" r="3.097" transform="translate(300.494 33.509) rotate(-72.43)" fill="#ffd037"/>
    <path id="Path_204" data-name="Path 204" d="M275.679,188.912s13.317-9.91-3.407-44.6c0,0-22.3-27.562,0-53.576,0,0-48.621,1.239-47.692,46.453s24.311,51.718,24.311,51.718Z" transform="translate(-173.835 -81.165)" fill="#5abd8c"/>
    <path id="Path_205" data-name="Path 205" d="M311.434,188.891s-3.354-23.846-12.335-38.4a31.22,31.22,0,0,1-3.775-9.52A38.976,38.976,0,0,1,306.3,104.513l14.168-13.8" transform="translate(-222.027 -81.144)" fill="none" stroke="#535461" stroke-width="2"/>
    <path id="Path_206" data-name="Path 206" d="M460.4,150.69s3.06,4-1.412,10.04-8.157,11.149-6.668,14.9c0,0,6.745-11.217,12.236-11.375S466.44,157.435,460.4,150.69Z" transform="translate(-330.824 -122.549)" fill="#5abd8c"/>
    <path id="Path_207" data-name="Path 207" d="M460.777,150.69a4.953,4.953,0,0,1,.619,1.254c5.358,6.293,8.21,12.168,3.063,12.316-4.8.136-10.551,8.715-11.929,10.879a4.657,4.657,0,0,0,.164.492s6.745-11.217,12.236-11.375S466.816,157.435,460.777,150.69Z" transform="translate(-331.2 -122.549)" opacity="0.1"/>
    <path id="Path_208" data-name="Path 208" d="M495.946,165.142c0,1.409-.158,2.549-.353,2.549s-.353-1.143-.353-2.549.2-.746.393-.746S495.946,163.736,495.946,165.142Z" transform="translate(-360.683 -131.903)" fill="#ffd037"/>
    <path id="Path_209" data-name="Path 209" d="M498.442,170.431c-1.239.675-2.313,1.081-2.406.91s.833-.855,2.069-1.53.749-.183.842,0S499.678,169.755,498.442,170.431Z" transform="translate(-361.228 -135.51)" fill="#ffd037"/>
    <path id="Path_210" data-name="Path 210" d="M411.7,150.69s-3.06,4,1.412,10.04,8.157,11.149,6.668,14.9c0,0-6.745-11.217-12.236-11.375S405.652,157.435,411.7,150.69Z" transform="translate(-298.273 -122.549)" fill="#5abd8c"/>
    <path id="Path_211" data-name="Path 211" d="M411.687,150.69a4.955,4.955,0,0,0-.619,1.254c-5.358,6.293-8.21,12.168-3.063,12.316,4.8.136,10.551,8.715,11.929,10.879a4.649,4.649,0,0,1-.164.492s-6.754-11.22-12.245-11.372S405.642,157.435,411.687,150.69Z" transform="translate(-298.263 -122.549)" opacity="0.1"/>
    <path id="Path_212" data-name="Path 212" d="M408.62,165.142c0,1.409.158,2.549.353,2.549s.353-1.143.353-2.549-.2-.746-.393-.746S408.62,163.736,408.62,165.142Z" transform="translate(-300.888 -131.903)" fill="#ffd037"/>
    <path id="Path_213" data-name="Path 213" d="M400.644,170.431c1.239.675,2.313,1.081,2.406.91s-.833-.855-2.069-1.53-.749-.183-.842,0S399.409,169.755,400.644,170.431Z" transform="translate(-294.864 -135.51)" fill="#ffd037"/>
    <path id="Path_214" data-name="Path 214" d="M394.75,354.653,367.618,235.274h-10.08c-.4-4.562-.672-8.981-.774-13.143,0,0-36.543,8-65.685-15.138s-63.4,2-63.4,2l-.133-.1v.012c-2.378-1.685-35.2-24.177-63.26-1.9C135.153,230.146,98.6,222.149,98.6,222.149c-.1,4.215-.375,8.671-.787,13.276H88.458L60.75,355.084s112.634,4.218,152.1.328c1.415,2.992,7.516,5.24,14.825,5.24,8.213,0,14.893-2.84,15.125-6.38C273.528,356.61,339.641,360.348,394.75,354.653Z" transform="translate(-60.75 -154.659)" fill="url(#linear-gradient)"/>
    <path id="Path_215" data-name="Path 215" d="M99.126,323.216,72,440.384s149.323,5.593,161.348-2.236c0,0,92.7,9.368,165.684,1.818L372.467,323.08Z" transform="translate(-68.516 -241.551)" fill="#e2e2ec"/>
    <path id="Path_216" data-name="Path 216" d="M133.019,336.3,107.73,445.537s139.218,5.215,150.429-2.084c0,0,86.425,8.733,154.47,1.694L387.853,336.17Z" transform="translate(-93.181 -250.588)" opacity="0.1"/>
    <path id="Path_217" data-name="Path 217" d="M394.569,227.14s-35.794,7.829-64.316-14.822-62.08,1.957-62.08,1.957-33.555-24.608-62.077-1.957-64.316,14.822-64.316,14.822c-1.127,45.58-22.369,119.4-22.369,119.4s39.148,10.625,90.881-10.9,57.884,7.55,57.884,7.55,6.15-29.083,57.884-7.55,90.881,10.9,90.881,10.9S395.687,272.72,394.569,227.14Z" transform="translate(-101.244 -158.476)" fill="#f1f2fb"/>
    <path id="Path_218" data-name="Path 218" d="M376.75,648.272s47.259-10.625,69.061,5.032c0,0,20.972-19.015,69.627-4.193" transform="translate(-278.888 -462.713)" opacity="0.1"/>
    <ellipse id="Ellipse_58" data-name="Ellipse 58" cx="14.822" cy="6.432" rx="14.822" ry="6.432" transform="translate(152.107 191.422)" fill="#e8eaf8"/>
    <path id="Path_219" data-name="Path 219" d="M599.32,239.55s10.625,53.97.279,130.029" transform="translate(-432.531 -183.89)" opacity="0.1"/>
    <path id="Path_220" data-name="Path 220" d="M224.7,311.492s22.257,5.172,41.523,0,54.638-22.09,66.273,0" transform="translate(-173.926 -225.909)" fill="none" stroke="#000" stroke-width="4" opacity="0.1"/>
    <path id="Path_221" data-name="Path 221" d="M224.7,358.455s22.257,5.172,41.523,0,60.981-4.893,66.273,0" transform="translate(-173.926 -263.365)" fill="none" stroke="#000" stroke-width="4" opacity="0.1"/>
    <path id="Path_222" data-name="Path 222" d="M224.7,396.322s22.257,5.172,41.523,0,54.638-22.09,66.273,0" transform="translate(-173.926 -284.468)" fill="none" stroke="#000" stroke-width="4" opacity="0.1"/>
    <path id="Path_223" data-name="Path 223" d="M224.7,443.325s22.257,5.172,41.523,0,60.981-4.893,66.273,0" transform="translate(-173.926 -321.952)" fill="none" stroke="#000" stroke-width="4" opacity="0.1"/>
    <path id="Path_224" data-name="Path 224" d="M734.567,311.492s-22.257,5.172-41.523,0-54.639-22.09-66.273,0" transform="translate(-451.48 -225.909)" fill="none" stroke="#000" stroke-width="4" opacity="0.1"/>
    <path id="Path_225" data-name="Path 225" d="M734.567,358.455s-22.257,5.172-41.523,0-60.981-4.893-66.273,0" transform="translate(-451.48 -263.365)" fill="none" stroke="#000" stroke-width="4" opacity="0.1"/>
    <path id="Path_226" data-name="Path 226" d="M734.567,396.322s-22.257,5.172-41.523,0-54.639-22.09-66.273,0" transform="translate(-451.48 -284.468)" fill="none" stroke="#000" stroke-width="4" opacity="0.1"/>
    <path id="Path_227" data-name="Path 227" d="M734.567,443.325s-22.257,5.172-41.523,0-60.981-4.893-66.273,0" transform="translate(-451.48 -321.952)" fill="none" stroke="#000" stroke-width="4" opacity="0.1"/>
    <path id="Path_228" data-name="Path 228" d="M931.319,758.526a5.285,5.285,0,0,0,2.081-2.561,2.168,2.168,0,0,0-1.452-2.608c-1.335-.415-2.759.338-3.843,1.1s-2.32,1.632-3.735,1.471a4.155,4.155,0,0,0,1.759-4.336,1.681,1.681,0,0,0-.489-.883c-.74-.647-2.084-.369-2.97.139-2.821,1.62-3.608,4.744-3.623,7.559a11.776,11.776,0,0,1-.053-3.115,2.967,2.967,0,0,0-1.434-2.756,5.126,5.126,0,0,0-2.186-.418,5.253,5.253,0,0,0-3.546.824,2.475,2.475,0,0,0,.139,3.552,13.661,13.661,0,0,0,3.67,2.4,7.649,7.649,0,0,1,2.623,2.041,1.855,1.855,0,0,1,.2.365h7.95A22.861,22.861,0,0,0,931.319,758.526Z" transform="translate(-647.78 -536.488)" fill="#5abd8c"/>
    <path id="Path_229" data-name="Path 229" d="M788.057,242.525s.078.446.207,1.239c-.068.124-.136.248-.207.369-2.539,4.274-2.93,10.43-2.691,15.484a50.666,50.666,0,0,0,2.128,12.016,56.168,56.168,0,0,1,2.168,15.608,11.347,11.347,0,0,0,3.555,2.589c.068.207.139.418.2.619a63.315,63.315,0,0,1,2.363,11.957l.8,10.114s6.122,22.892,7.984,27.15c1.326,3.029,1.034,9.291.756,12.648-.8,2.258-1.765,4.41-2.62,4.645-1.549.44-3.1,4.168-.842,6.042h0a3.586,3.586,0,0,0,.542.372l.09.05.164.084.242.108.124.046.257.087.112.034c.121.034.245.068.378.1a6.76,6.76,0,0,0,4.6-.728,9.271,9.271,0,0,0,4.336-2.084l-.031,1.614h1.858l-.087-3.224c.334-.375.52-.619.52-.619s.056-1.948.269-4.215l-.136,7.275h1.858l-.5-13.425a2.145,2.145,0,0,1,.369-.548c1.548-1.548-1.127-6.544-2.512-7.377.619-3.283,2.982-8.024,5.708-17.113,3.992-13.317-1.065-26.351-1.065-26.351V286.87c1.341-.576,2.131-.969,2.131-.969s-1.858-10.913,0-18.631c1.2-4.989,1.518-9.421.511-13.66,1.338-4.608,2.419-8.167,2.419-8.167l1.858-19.164c.474-2.877.793-5.339,1-7.433.034-.26.059-.523.071-.784a39.134,39.134,0,0,0,.043-8.207,13.032,13.032,0,0,0,.112-2.357,9.316,9.316,0,0,0,.049-1.217c.266-.31.526-.619.774-.929a13.35,13.35,0,0,0,1.669-2.663c2.047-3.862,2.106-8.578-.752-11.982-1.759-2.1-2.307-4.354-3.828-6.587-1.39-2.044-1.654-4.494-1.988-6.847a83.787,83.787,0,0,0-1.7-8.693c-.214-.842-1.384-1.36-1.966-2.059-1.124-1.353-4.407-1.307-6.3-1.607-3.177-.5-6.618-.976-9.51.273-2.013.87-3.459,2.453-5.032,3.849-1.694,1.5-5.163,2.227-5.7,4.026-.48.688-.5,1.548.31,2.7a13.055,13.055,0,0,0,3.18,2.731c.149.105.288.217.434.31a11.31,11.31,0,0,0,6.147,11.966q-.047.3-.1.595a35.865,35.865,0,0,1-1.4,5.113c-.344,1.028-4.32,2.824-7.123,3.976a3.561,3.561,0,0,0-1.136-.783c-2.131-.533-9.316,3.459-9.848,4.791-.149.372.242,1.4.876,2.694a9.61,9.61,0,0,0,.288,1.747c-.158,2.725.127,7.123,1.5,14.193Zm29.885,2.995c-.1-.189-.2-.381-.31-.579-2.958-5.98-4.713-15.649-.477-21.415.378.04.756.077,1.133.1.251,7.848.105,20.749.105,20.749S818.227,244.811,817.942,245.52ZM807.385,291.1c.6,3.019,1.307,6.528,1.967,9.718a25.553,25.553,0,0,1-.155,11.248l-2.5-7.507-.582-13.208-.037-.542q.6-.1,1.2-.22Z" transform="translate(-559.484 -132.007)" fill="url(#linear-gradient-2)"/>
    <path id="Path_230" data-name="Path 230" d="M859.911,565.1a25.156,25.156,0,0,1-.152,11.071,14.325,14.325,0,0,1-.619,2.028l.706,28.708.081,3.255a16.365,16.365,0,0,0,1.982.291,9,9,0,0,0,1.858,0,2.222,2.222,0,0,0,1.456-.619c.291-.356.353-.929-.059-1.762a5.24,5.24,0,0,1-.5-2.958c.025-.285.071-.585.127-.9.619-3.23,2.933-7.9,5.618-16.844,3.93-13.1-1.047-25.937-1.047-25.937V549.38l-12.837-1.31s.619,3.246,1.471,7.464C858.567,558.507,859.261,561.96,859.911,565.1Z" transform="translate(-610.078 -396.865)" fill="#fdc2cc"/>
    <path id="Path_231" data-name="Path 231" d="M859.911,565.1a25.156,25.156,0,0,1-.152,11.071,14.325,14.325,0,0,1-.619,2.028l.706,28.708.081,3.255a16.365,16.365,0,0,0,1.982.291,9,9,0,0,0,1.858,0,2.222,2.222,0,0,0,1.456-.619c.291-.356.353-.929-.059-1.762a5.24,5.24,0,0,1-.5-2.958c.025-.285.071-.585.127-.9.619-3.23,2.933-7.9,5.618-16.844,3.93-13.1-1.047-25.937-1.047-25.937V549.38l-12.837-1.31s.619,3.246,1.471,7.464C858.567,558.507,859.261,561.96,859.911,565.1Z" transform="translate(-610.078 -396.865)" opacity="0.1"/>
    <path id="Path_232" data-name="Path 232" d="M809.94,552.3a39.312,39.312,0,0,1,2.128,5.522,62.323,62.323,0,0,1,2.326,11.768l.787,9.956s6.026,22.53,7.86,26.723c1.3,2.982,1.019,9.145.743,12.456-.111,1.344-.22,2.217-.22,2.217l2.673-3.273,3.5-4.3,1.6-1.96.35-.427a16.089,16.089,0,0,1-1.022-2.735h0a46.734,46.734,0,0,1-1.595-8.78c-.787-8.12-1.047-19.126-1.047-19.126l-.415-1.239-2.478-7.4-.573-13.007-.214-4.816Z" transform="translate(-577.924 -399.784)" fill="#fdc2cc"/>
    <path id="Path_233" data-name="Path 233" d="M856.248,730.8a18.639,18.639,0,0,0-3.115,6.16c-.833,2.834-2.3,7.188-3.527,7.538-1.833.523-3.667,5.763,1.047,6.813s8.646-4.193,8.646-4.193.263-9.17,1.833-10.74-1.31-6.813-2.62-7.337C857.988,728.824,857.1,729.691,856.248,730.8Z" transform="translate(-603.965 -521.766)" fill="#5f5d7e"/>
    <path id="Path_234" data-name="Path 234" d="M851.564,750.532a6.309,6.309,0,0,0,3.679-.334,8.222,8.222,0,0,0,5.147-7.064c.223-2.806.694-6.578,1.651-7.535,1.239-1.239-.31-4.769-1.641-6.457a.71.71,0,0,1,.592-.093c1.31.523,4.193,5.763,2.62,7.336s-1.833,10.74-1.833,10.74-3.924,5.24-8.64,4.187a4.334,4.334,0,0,1-1.877-.864C851.359,750.479,851.458,750.507,851.564,750.532Z" transform="translate(-606.447 -521.777)" opacity="0.1"/>
    <path id="Path_235" data-name="Path 235" d="M886.989,752.432l.5,13.533H885.66l.254-13.524a.52.52,0,0,1,.539-.492h0A.52.52,0,0,1,886.989,752.432Z" transform="translate(-630.194 -537.604)" fill="#5f5d7e"/>
    <path id="Path_236" data-name="Path 236" d="M886.989,752.432l.5,13.533H885.66l.254-13.524a.52.52,0,0,1,.539-.492h0A.52.52,0,0,1,886.989,752.432Z" transform="translate(-630.194 -537.604)" opacity="0.15"/>
    <path id="Path_237" data-name="Path 237" d="M848.638,733.333a18.642,18.642,0,0,0-3.116,6.16c-.833,2.834-2.3,7.188-3.527,7.538-1.833.523-3.667,5.763,1.047,6.813s8.646-4.2,8.646-4.2.263-9.17,1.833-10.74-1.31-6.813-2.62-7.337C850.372,731.373,849.492,732.227,848.638,733.333Z" transform="translate(-598.712 -523.516)" fill="#5f5d7e"/>
    <path id="Path_238" data-name="Path 238" d="M843.947,753.052a6.307,6.307,0,0,0,3.679-.334,8.222,8.222,0,0,0,5.147-7.064c.223-2.806.694-6.578,1.651-7.535,1.239-1.239-.31-4.769-1.641-6.457a.709.709,0,0,1,.592-.093c1.31.523,4.193,5.763,2.62,7.336s-1.83,10.74-1.83,10.74-3.93,5.24-8.646,4.193a4.336,4.336,0,0,1-1.877-.864C843.752,753.005,843.841,753.033,843.947,753.052Z" transform="translate(-601.187 -523.516)" opacity="0.1"/>
    <path id="Path_239" data-name="Path 239" d="M879.341,754.921l.5,13.533H878l.254-13.524a.52.52,0,0,1,.539-.492h0a.52.52,0,0,1,.548.483Z" transform="translate(-624.906 -539.322)" fill="#5f5d7e"/>
    <path id="Path_240" data-name="Path 240" d="M879.341,754.921l.5,13.533H878l.254-13.524a.52.52,0,0,1,.539-.492h0a.52.52,0,0,1,.548.483Z" transform="translate(-624.906 -539.322)" opacity="0.15"/>
    <path id="Path_241" data-name="Path 241" d="M810.79,247.813l10.48,16.506,12.313,1.573s7.6-14.933,7.336-15.72-4.193-2.357-7.86-5.24.787-14.933.787-14.933l-12.05,1.047c.046.161.093.31.127.489a15.633,15.633,0,0,1-.059,6.277,35.3,35.3,0,0,1-1.381,5.023C819.96,244.407,810.79,247.813,810.79,247.813Z" transform="translate(-578.511 -177.297)" fill="#fdc2cc"/>
    <path id="Path_242" data-name="Path 242" d="M856.47,548.07s.619,3.246,1.471,7.464a60.126,60.126,0,0,0,11.369-3.63V549.38Z" transform="translate(-610.044 -396.865)" opacity="0.1"/>
    <path id="Path_243" data-name="Path 243" d="M809.94,552.3a39.312,39.312,0,0,1,2.128,5.522c3.645,1.644,8.179,1.6,12.493.864l-.214-4.816Z" transform="translate(-577.924 -399.784)" opacity="0.1"/>
    <path id="Path_244" data-name="Path 244" d="M789.208,325.244c-2.5,4.209-2.883,10.263-2.648,15.255a49.866,49.866,0,0,0,2.094,11.824,55.283,55.283,0,0,1,2.137,15.364c8.907,9.693,30.913-1.31,30.913-1.31s-1.833-10.74,0-18.34c1.276-5.283,1.548-9.938.254-14.4a22.7,22.7,0,0,0-2.611-5.776c-.347-.551-.684-1.161-1.01-1.815-3.035-6.138-4.788-16.222.093-21.784a10.179,10.179,0,0,1,1.7-1.548,17.505,17.505,0,0,0,7.011-9.4,12.639,12.639,0,0,0,.31-5.534c-.523-2.883-7.86-5.5-7.86-5.5.263,8.647-10.74,15.98-10.74,15.98s-12.577-16.243-14.67-16.767-9.17,3.407-9.693,4.717,5.763,11,5.763,11S794.188,316.86,789.208,325.244Z" transform="translate(-560.335 -212.811)" fill="#d39999"/>
    <path id="Path_245" data-name="Path 245" d="M894.834,318.007a17.505,17.505,0,0,0,7.011-9.4c-.2-4.336-1.239-5.008-1.239-5.008s-8.656,8.38-7.869,11.273a29.968,29.968,0,0,1,.393,4.695A10.174,10.174,0,0,1,894.834,318.007Z" transform="translate(-635.045 -228.104)" opacity="0.1"/>
    <path id="Path_246" data-name="Path 246" d="M851.656,461.875c1.833,5.5,11-4.193,11.267-8.383.167-2.682,3.125-13.2,5.231-20.421a22.7,22.7,0,0,0-2.611-5.776c-.347-.551-.684-1.161-1.01-1.815-.994,2.443-4.986,12.459-4.754,15.438.263,3.407-1.573,8.383-1.573,8.383S849.822,456.371,851.656,461.875Z" transform="translate(-606.54 -312.239)" opacity="0.1"/>
    <path id="Path_247" data-name="Path 247" d="M873.78,303.59s2.883,1.833,0,19.387l-1.833,18.863s-7.073,23.316-7.336,27.51-9.43,13.883-11.266,8.383,6.55-12.577,6.55-12.577,1.833-4.977,1.573-8.383,4.977-15.98,4.977-15.98.263-23.053-.523-25.936S873.78,303.59,873.78,303.59Z" transform="translate(-607.705 -228.097)" fill="#fdc2cc"/>
    <path id="Path_248" data-name="Path 248" d="M791.345,296.82s-3.407.787,0,18.34l2.1,19.126s4.717,27.51,4.453,30.659,10.22,11.267,11,6.813-5.24-11.79-5.24-11.79-2.626-5.773-2.626-16.516l-.523-8.647-3.664-31.173Z" transform="translate(-564.042 -223.424)" opacity="0.1"/>
    <path id="Path_249" data-name="Path 249" d="M789.625,296.82s-3.407.787,0,18.34l2.1,19.126s4.717,27.51,4.453,30.659,10.22,11.267,11,6.813-5.24-11.79-5.24-11.79-2.62-5.763-2.62-16.506l-.523-8.647-3.661-31.183Z" transform="translate(-562.855 -223.424)" fill="#fdc2cc"/>
    <path id="Path_250" data-name="Path 250" d="M787.357,295.506s-1.573,8.383,9.43,11.267-1.31-9.96-1.31-9.96S791.287,290.529,787.357,295.506Z" transform="translate(-562.281 -221.193)" opacity="0.1"/>
    <path id="Path_251" data-name="Path 251" d="M788.2,294.663s-1.57,8.38,9.433,11.263-1.31-9.957-1.31-9.957S792.127,289.683,788.2,294.663Z" transform="translate(-562.861 -220.61)" fill="#d39999"/>
    <path id="Path_252" data-name="Path 252" d="M892.516,295.506s1.573,8.383-9.43,11.267,1.307-9.96,1.307-9.96S888.574,290.529,892.516,295.506Z" transform="translate(-625.261 -221.193)" opacity="0.1"/>
    <path id="Path_253" data-name="Path 253" d="M891.656,294.663s1.586,8.38-9.43,11.263,1.31-9.957,1.31-9.957S887.726,289.683,891.656,294.663Z" transform="translate(-624.663 -220.61)" fill="#d39999"/>
    <path id="Path_254" data-name="Path 254" d="M846.55,238.97c1.446.421,3.066-2.967,4.776-2.967,1.812,0,3.518,3.626,5.029,2.858a45.405,45.405,0,0,1,1.914-7.182l-11.66,1.028A15.611,15.611,0,0,1,846.55,238.97Z" transform="translate(-603.196 -178.457)" opacity="0.1"/>
    <circle id="Ellipse_59" data-name="Ellipse 59" cx="11.133" cy="11.133" r="11.133" transform="translate(237.259 38.816)" fill="#fdc2cc"/>
    <path id="Path_255" data-name="Path 255" d="M814.4,181.864a13.172,13.172,0,0,0,3.131,2.688,34.391,34.391,0,0,1,3.97,3.323,11.74,11.74,0,0,1,2.221,2.75,12.557,12.557,0,0,1,1.106,5.327l1.081,18.745a11.966,11.966,0,0,1-.174,3.716,12.693,12.693,0,0,1-1.341,2.936,25.748,25.748,0,0,1-5.193,7.123c-.768.666-1.7,1.527-1.3,2.4.328.7,1.338.929,2.2,1.031,3.639.489,7.671.907,10.734-.867a18.222,18.222,0,0,1,3.407-2.044c1.8-.573,3.791.025,5.711.022a17.925,17.925,0,0,0,5.884-1.347,2.107,2.107,0,0,0,.966-.545,1.613,1.613,0,0,0,.276-.74,9.4,9.4,0,0,0,.09-4.587c-.511-1.613-1.858-3.01-2.01-4.676-.2-2.316,1.939-4.2,3.475-6.107,3.27-4.054,4-9.891.641-13.89-1.731-2.063-2.273-4.286-3.769-6.482-1.369-2.01-1.629-4.422-1.957-6.739a82.576,82.576,0,0,0-1.679-8.557c-.208-.83-1.363-1.338-1.936-2.028-1.109-1.332-4.336-1.285-6.194-1.582-3.128-.5-6.5-.96-9.362.269-1.982.855-3.407,2.416-4.955,3.787C817.236,177.748,811.915,178.361,814.4,181.864Z" transform="translate(-580.556 -136.721)" opacity="0.1"/>
    <path id="Path_256" data-name="Path 256" d="M815.246,180.174a13.172,13.172,0,0,0,3.131,2.688,34.4,34.4,0,0,1,3.97,3.329,11.74,11.74,0,0,1,2.221,2.75,12.557,12.557,0,0,1,1.105,5.327l1.09,18.739a11.964,11.964,0,0,1-.173,3.716,12.7,12.7,0,0,1-1.341,2.936,25.751,25.751,0,0,1-5.193,7.123c-.768.666-1.7,1.527-1.3,2.4.328.7,1.338.929,2.205,1.031,3.639.489,7.671.907,10.734-.867A18.226,18.226,0,0,1,835.1,227.3c1.8-.573,3.791.025,5.711.022a17.924,17.924,0,0,0,5.884-1.347,2.108,2.108,0,0,0,.966-.545,1.613,1.613,0,0,0,.276-.74,9.4,9.4,0,0,0,.09-4.587c-.511-1.613-1.858-3.01-2.01-4.676-.2-2.316,1.939-4.2,3.475-6.107,3.27-4.054,4-9.891.641-13.89-1.731-2.063-2.273-4.286-3.769-6.482-1.369-2.01-1.629-4.422-1.957-6.739a82.527,82.527,0,0,0-1.679-8.557c-.208-.83-1.363-1.338-1.936-2.028-1.109-1.332-4.336-1.285-6.194-1.582-3.128-.5-6.5-.96-9.362.269-1.982.855-3.407,2.416-4.955,3.788C818.068,176.058,812.763,176.671,815.246,180.174Z" transform="translate(-581.14 -135.554)" fill="#865a61"/>
  </g>
</svg>
